<svg height='100px' width='100px'  fill="#000000" xmlns="http://www.w3.org/2000/svg" data-name="Layer 1" viewBox="0 0 64 64" x="0px" y="0px"><title>journalist news weather prediction</title><path d="M22,16H20a1,1,0,0,1-1-1,3,3,0,0,0-6,0,1,1,0,0,1-1,1H10a2,2,0,0,0,0,4H22a2,2,0,0,0,0-4Z"></path><path d="M24.88,2H7.13A5.13,5.13,0,0,0,2,7.13V24.88A5.13,5.13,0,0,0,7.13,30H24.88A5.13,5.13,0,0,0,30,24.88V7.13A5.13,5.13,0,0,0,24.88,2ZM22,22H10a4,4,0,0,1,0-8h1.1a5,5,0,0,1,9.8,0H22a4,4,0,0,1,0,8Z"></path><path d="M56.88,2H39.13A5.13,5.13,0,0,0,34,7.13V24.88A5.13,5.13,0,0,0,39.13,30H56.88A5.13,5.13,0,0,0,62,24.88V7.13A5.13,5.13,0,0,0,56.88,2Zm-4.64,8.34,1.42-1.41a1,1,0,0,1,1.41,1.41l-1.41,1.42a1,1,0,0,1-1.42,0A1,1,0,0,1,52.24,10.34ZM47,7a1,1,0,0,1,2,0V9a1,1,0,0,1-2,0ZM40.93,8.93a1,1,0,0,1,1.41,0l1.42,1.41a1,1,0,0,1,0,1.42,1,1,0,0,1-1.42,0l-1.41-1.42A1,1,0,0,1,40.93,8.93ZM39,17a1,1,0,0,1,0-2h2a1,1,0,0,1,0,2Zm4.76,4.66-1.42,1.41a1,1,0,0,1-1.41,0,1,1,0,0,1,0-1.41l1.41-1.42a1,1,0,0,1,1.42,1.42ZM49,25a1,1,0,0,1-2,0V23a1,1,0,0,1,2,0Zm-1-5a4,4,0,1,1,4-4A4,4,0,0,1,48,20Zm7.07,3.07a1,1,0,0,1-1.41,0l-1.42-1.41a1,1,0,0,1,1.42-1.42l1.41,1.42A1,1,0,0,1,55.07,23.07ZM57,17H55a1,1,0,0,1,0-2h2a1,1,0,0,1,0,2Z"></path><circle cx="48" cy="16" r="2"></circle><path d="M24.88,34H7.13A5.13,5.13,0,0,0,2,39.13V56.88A5.13,5.13,0,0,0,7.13,62H24.88A5.13,5.13,0,0,0,30,56.88V39.13A5.13,5.13,0,0,0,24.88,34Zm.83,15.29a1,1,0,0,1,0,1.42,1,1,0,0,1-1.42,0L22.59,49H18.41l2.95,3h2.42a1,1,0,0,1,0,2H22v1.83a1,1,0,0,1-2,0V53.36l-2.95-3v4.18l1.71,1.7a1,1,0,0,1,0,1.42,1,1,0,0,1-1.42,0L16,56.41l-1.29,1.3a1,1,0,0,1-1.42-1.42L15,54.59V50.41l-2.95,3v2.42a1,1,0,0,1-2,0V54H8.22a1,1,0,0,1,0-2h2.42l2.95-3H9.41l-1.7,1.71a1,1,0,0,1-1.42,0,1,1,0,0,1,0-1.42L7.59,48l-1.3-1.29a1,1,0,0,1,1.42-1.42L9.41,47h4.18l-2.95-3H8.22a1,1,0,0,1,0-2h1.83V40.22a1,1,0,0,1,2,0v2.42l2.95,3V41.41l-1.71-1.7a1,1,0,0,1,1.42-1.42L16,39.59l1.29-1.3a1,1,0,0,1,1.42,1.42L17,41.41v4.18l2.95-3V40.22a1,1,0,0,1,2,0v1.83h1.83a1,1,0,0,1,0,2H21.36l-2.95,3h4.18l1.7-1.71a1,1,0,0,1,1.42,1.42L24.41,48Z"></path><path d="M43,51a5,5,0,0,0,10,0c0-4.32-3.47-8.77-5-10.52C46.47,42.23,43,46.68,43,51Z"></path><path d="M56.88,34H39.13A5.13,5.13,0,0,0,34,39.13V56.88A5.13,5.13,0,0,0,39.13,62H56.88A5.13,5.13,0,0,0,62,56.88V39.13A5.13,5.13,0,0,0,56.88,34ZM48,58a7,7,0,0,1-7-7c0-6.34,6-12.45,6.29-12.71a1,1,0,0,1,1.42,0C49,38.55,55,44.66,55,51A7,7,0,0,1,48,58Z"></path></svg>